<svg width="36" height="35" viewBox="0 0 36 35" fill="none" xmlns="http://www.w3.org/2000/svg">
<g clip-path="url(#clip0_1_56)">
<path d="M17.88 14.1789C18.1693 14.1789 18.4467 14.2938 18.6513 14.4983C18.8558 14.7029 18.9707 14.9803 18.9707 15.2696V18.5416H22.2428C22.532 18.5416 22.8095 18.6565 23.014 18.8611C23.2185 19.0656 23.3335 19.343 23.3335 19.6323C23.3335 19.9216 23.2185 20.199 23.014 20.4035C22.8095 20.6081 22.532 20.723 22.2428 20.723H18.9707V23.995C18.9707 24.2843 18.8558 24.5617 18.6513 24.7663C18.4467 24.9708 18.1693 25.0857 17.88 25.0857C17.5908 25.0857 17.3134 24.9708 17.1088 24.7663C16.9043 24.5617 16.7894 24.2843 16.7894 23.995V20.723H13.5173C13.2281 20.723 12.9506 20.6081 12.7461 20.4035C12.5415 20.199 12.4266 19.9216 12.4266 19.6323C12.4266 19.343 12.5415 19.0656 12.7461 18.8611C12.9506 18.6565 13.2281 18.5416 13.5173 18.5416H16.7894V15.2696C16.7894 14.9803 16.9043 14.7029 17.1088 14.4983C17.3134 14.2938 17.5908 14.1789 17.88 14.1789Z" fill="#4F6DD6"/>
<path d="M30.9682 9.81614V30.5391C30.9682 31.6962 30.5086 32.8058 29.6904 33.624C28.8723 34.4422 27.7626 34.9018 26.6055 34.9018H9.1546C7.99753 34.9018 6.88785 34.4422 6.06968 33.624C5.25151 32.8058 4.79187 31.6962 4.79187 30.5391V4.36273C4.79187 3.20566 5.25151 2.09598 6.06968 1.27781C6.88785 0.459643 7.99753 0 9.1546 0L21.1521 0L30.9682 9.81614ZM24.4241 9.81614C23.5563 9.81614 22.7241 9.47141 22.1105 8.85778C21.4968 8.24415 21.1521 7.41189 21.1521 6.54409V2.18136H9.1546C8.57606 2.18136 8.02123 2.41119 7.61214 2.82027C7.20306 3.22936 6.97323 3.78419 6.97323 4.36273V30.5391C6.97323 31.1176 7.20306 31.6725 7.61214 32.0816C8.02123 32.4906 8.57606 32.7205 9.1546 32.7205H26.6055C27.184 32.7205 27.7389 32.4906 28.148 32.0816C28.5571 31.6725 28.7869 31.1176 28.7869 30.5391V9.81614H24.4241Z" fill="#4F6DD6"/>
</g>
<defs>
<clipPath id="clip0_1_56">
<rect width="34.9018" height="34.9018" fill="white" transform="translate(0.429199)"/>
</clipPath>
</defs>
</svg>
