<svg width="35" height="36" viewBox="0 0 35 36" fill="none" xmlns="http://www.w3.org/2000/svg">
<g clip-path="url(#clip0_1_74)">
<path d="M30.5391 10.6094V31.3323C30.5391 32.4894 30.0795 33.5991 29.2613 34.4172C28.4431 35.2354 27.3334 35.695 26.1764 35.695H8.72546C7.56839 35.695 6.45872 35.2354 5.64055 34.4172C4.82237 33.5991 4.36273 32.4894 4.36273 31.3323V5.15594C4.36273 3.99887 4.82237 2.8892 5.64055 2.07103C6.45872 1.25286 7.56839 0.793213 8.72546 0.793213L20.723 0.793213L30.5391 10.6094ZM23.995 10.6094C23.1272 10.6094 22.295 10.2646 21.6813 9.65099C21.0677 9.03736 20.723 8.20511 20.723 7.33731V2.97458H8.72546C8.14693 2.97458 7.59209 3.2044 7.183 3.61348C6.77392 4.02257 6.5441 4.57741 6.5441 5.15594V31.3323C6.5441 31.9108 6.77392 32.4657 7.183 32.8748C7.59209 33.2839 8.14693 33.5137 8.72546 33.5137H26.1764C26.7549 33.5137 27.3097 33.2839 27.7188 32.8748C28.1279 32.4657 28.3577 31.9108 28.3577 31.3323V10.6094H23.995Z" fill="#4F6DD6"/>
</g>
<defs>
<clipPath id="clip0_1_74">
<rect width="34.9018" height="34.9018" fill="white" transform="translate(0 0.793213)"/>
</clipPath>
</defs>
</svg>
