<svg width="36" height="36" viewBox="0 0 36 36" fill="none" xmlns="http://www.w3.org/2000/svg">
<g clip-path="url(#clip0_1_76)">
<path d="M13.2706 15.8076V25.0435C13.2706 25.2365 13.3218 25.426 13.4189 25.5927C13.516 25.7595 13.6557 25.8975 13.8236 25.9926C13.9915 26.0878 14.1816 26.1367 14.3745 26.1343C14.5675 26.132 14.7564 26.0785 14.9219 25.9793L22.6178 21.3613C22.7795 21.2645 22.9134 21.1274 23.0064 20.9634C23.0994 20.7994 23.1482 20.6141 23.1482 20.4255C23.1482 20.237 23.0994 20.0517 23.0064 19.8877C22.9134 19.7237 22.7795 19.5866 22.6178 19.4897L14.9219 14.8718C14.7562 14.7725 14.5671 14.719 14.374 14.7167C14.1808 14.7145 13.9906 14.7636 13.8226 14.859C13.6547 14.9544 13.515 15.0927 13.4181 15.2597C13.3211 15.4268 13.2702 15.6166 13.2706 15.8098V15.8076Z" fill="#4F6DD6"/>
<path d="M30.7215 31.3323V10.6094L20.9054 0.793213H8.90789C7.75083 0.793213 6.64115 1.25286 5.82298 2.07103C5.00481 2.8892 4.54517 3.99887 4.54517 5.15594V31.3323C4.54517 32.4894 5.00481 33.5991 5.82298 34.4172C6.64115 35.2354 7.75083 35.695 8.90789 35.695H26.3588C27.5159 35.695 28.6255 35.2354 29.4437 34.4172C30.2619 33.5991 30.7215 32.4894 30.7215 31.3323ZM20.9054 7.33731C20.9054 8.20511 21.2501 9.03736 21.8638 9.65099C22.4774 10.2646 23.3096 10.6094 24.1774 10.6094H28.5402V31.3323C28.5402 31.9108 28.3103 32.4657 27.9013 32.8748C27.4922 33.2839 26.9373 33.5137 26.3588 33.5137H8.90789C8.32936 33.5137 7.77452 33.2839 7.36544 32.8748C6.95635 32.4657 6.72653 31.9108 6.72653 31.3323V5.15594C6.72653 4.57741 6.95635 4.02257 7.36544 3.61348C7.77452 3.2044 8.32936 2.97458 8.90789 2.97458H20.9054V7.33731Z" fill="#4F6DD6"/>
</g>
<defs>
<clipPath id="clip0_1_76">
<rect width="34.9018" height="34.9018" fill="white" transform="translate(0.182373 0.793213)"/>
</clipPath>
</defs>
</svg>
