<svg width="36" height="35" viewBox="0 0 36 35" fill="none" xmlns="http://www.w3.org/2000/svg">
<g clip-path="url(#clip0_1_67)">
<path d="M31.255 9.81614V30.5391C31.255 31.6962 30.7953 32.8058 29.9772 33.624C29.159 34.4422 28.0493 34.9018 26.8923 34.9018H9.44134C8.28427 34.9018 7.1746 34.4422 6.35643 33.624C5.53826 32.8058 5.07861 31.6962 5.07861 30.5391V4.36273C5.07861 3.20566 5.53826 2.09598 6.35643 1.27781C7.1746 0.459643 8.28427 0 9.44134 0L21.4388 0L31.255 9.81614ZM24.7109 9.81614C23.8431 9.81614 23.0108 9.47141 22.3972 8.85778C21.7836 8.24415 21.4388 7.41189 21.4388 6.54409V2.18136H9.44134C8.86281 2.18136 8.30797 2.41119 7.89888 2.82027C7.4898 3.22936 7.25998 3.78419 7.25998 4.36273V30.5391C7.25998 31.1176 7.4898 31.6725 7.89888 32.0816C8.30797 32.4906 8.86281 32.7205 9.44134 32.7205H26.8923C27.4708 32.7205 28.0256 32.4906 28.4347 32.0816C28.8438 31.6725 29.0736 31.1176 29.0736 30.5391V9.81614H24.7109Z" fill="#4F6DD6"/>
<path d="M11.6227 8.72546C11.3335 8.72546 11.056 8.84037 10.8515 9.04492C10.647 9.24946 10.532 9.52688 10.532 9.81615C10.532 10.1054 10.647 10.3828 10.8515 10.5874C11.056 10.7919 11.3335 10.9068 11.6227 10.9068H24.7109C25.0002 10.9068 25.2776 10.7919 25.4821 10.5874C25.6867 10.3828 25.8016 10.1054 25.8016 9.81615C25.8016 9.52688 25.6867 9.24946 25.4821 9.04492C25.2776 8.84037 25.0002 8.72546 24.7109 8.72546H11.6227ZM10.532 14.1789C10.532 13.8896 10.647 13.6122 10.8515 13.4076C11.056 13.2031 11.3335 13.0882 11.6227 13.0882H24.7109C25.0002 13.0882 25.2776 13.2031 25.4821 13.4076C25.6867 13.6122 25.8016 13.8896 25.8016 14.1789C25.8016 14.4681 25.6867 14.7456 25.4821 14.9501C25.2776 15.1546 25.0002 15.2696 24.7109 15.2696H11.6227C11.3335 15.2696 11.056 15.1546 10.8515 14.9501C10.647 14.7456 10.532 14.4681 10.532 14.1789ZM11.6227 17.4509C11.3335 17.4509 11.056 17.5658 10.8515 17.7704C10.647 17.9749 10.532 18.2523 10.532 18.5416C10.532 18.8309 10.647 19.1083 10.8515 19.3128C11.056 19.5174 11.3335 19.6323 11.6227 19.6323H24.7109C25.0002 19.6323 25.2776 19.5174 25.4821 19.3128C25.6867 19.1083 25.8016 18.8309 25.8016 18.5416C25.8016 18.2523 25.6867 17.9749 25.4821 17.7704C25.2776 17.5658 25.0002 17.4509 24.7109 17.4509H11.6227ZM11.6227 21.8136C11.3335 21.8136 11.056 21.9286 10.8515 22.1331C10.647 22.3376 10.532 22.6151 10.532 22.9043C10.532 23.1936 10.647 23.471 10.8515 23.6756C11.056 23.8801 11.3335 23.995 11.6227 23.995H18.1668C18.4561 23.995 18.7335 23.8801 18.938 23.6756C19.1426 23.471 19.2575 23.1936 19.2575 22.9043C19.2575 22.6151 19.1426 22.3376 18.938 22.1331C18.7335 21.9286 18.4561 21.8136 18.1668 21.8136H11.6227Z" fill="#4F6DD6"/>
</g>
<defs>
<clipPath id="clip0_1_67">
<rect width="34.9018" height="34.9018" fill="white" transform="translate(0.715881)"/>
</clipPath>
</defs>
</svg>
