<svg width="36" height="35" viewBox="0 0 36 35" fill="none" xmlns="http://www.w3.org/2000/svg">
<g clip-path="url(#clip0_1_59)">
<path d="M24.5804 13.0882H11.7409L11.6166 17.4509H12.7073C13.0999 15.0601 13.4838 14.8507 16.4025 14.7569L17.0416 14.7351V25.8383C17.0416 26.8635 16.8235 27.1078 15.0828 27.2671V28.3577H21.2364V27.2671C19.4848 27.1078 19.2666 26.8657 19.2666 25.8404V14.7351L19.9167 14.7569C22.8353 14.8507 23.2193 15.0623 23.6119 17.4509H24.7026L24.5782 13.0882H24.5804Z" fill="#4F6DD6"/>
<path d="M31.2489 9.81614V30.5391C31.2489 31.6962 30.7892 32.8058 29.9711 33.624C29.1529 34.4422 28.0432 34.9018 26.8862 34.9018H9.43524C8.27817 34.9018 7.16849 34.4422 6.35032 33.624C5.53215 32.8058 5.07251 31.6962 5.07251 30.5391V4.36273C5.07251 3.20566 5.53215 2.09598 6.35032 1.27781C7.16849 0.459643 8.27817 0 9.43524 0L21.4327 0L31.2489 9.81614ZM24.7048 9.81614C23.837 9.81614 23.0047 9.47141 22.3911 8.85778C21.7775 8.24415 21.4327 7.41189 21.4327 6.54409V2.18136H9.43524C8.8567 2.18136 8.30187 2.41119 7.89278 2.82027C7.4837 3.22936 7.25387 3.78419 7.25387 4.36273V30.5391C7.25387 31.1176 7.4837 31.6725 7.89278 32.0816C8.30187 32.4906 8.8567 32.7205 9.43524 32.7205H26.8862C27.4647 32.7205 28.0195 32.4906 28.4286 32.0816C28.8377 31.6725 29.0675 31.1176 29.0675 30.5391V9.81614H24.7048Z" fill="#4F6DD6"/>
</g>
<defs>
<clipPath id="clip0_1_59">
<rect width="34.9018" height="34.9018" fill="white" transform="translate(0.709839)"/>
</clipPath>
</defs>
</svg>
