<svg width="56" height="56" viewBox="0 0 56 56" fill="none" xmlns="http://www.w3.org/2000/svg">
<g filter="url(#filter0_d_1_303)">
<path fill-rule="evenodd" clip-rule="evenodd" d="M35.0619 18.438C35.2016 18.5773 35.3125 18.7429 35.3881 18.9251C35.4637 19.1073 35.5026 19.3027 35.5026 19.5C35.5026 19.6973 35.4637 19.8927 35.3881 20.0749C35.3125 20.2571 35.2016 20.4227 35.0619 20.562L26.0619 29.562C25.9226 29.7017 25.7571 29.8125 25.5748 29.8881C25.3926 29.9638 25.1972 30.0027 24.9999 30.0027C24.8026 30.0027 24.6073 29.9638 24.425 29.8881C24.2428 29.8125 24.0773 29.7017 23.9379 29.562L19.4379 25.062C19.2985 24.9225 19.1878 24.757 19.1124 24.5747C19.0369 24.3925 18.998 24.1972 18.998 24C18.998 23.8028 19.0369 23.6075 19.1124 23.4252C19.1878 23.243 19.2985 23.0775 19.4379 22.938C19.5774 22.7985 19.743 22.6879 19.9252 22.6124C20.1074 22.5369 20.3027 22.4981 20.4999 22.4981C20.6972 22.4981 20.8925 22.5369 21.0747 22.6124C21.2569 22.6879 21.4225 22.7985 21.5619 22.938L24.9999 26.379L32.9379 18.438C33.0773 18.2983 33.2428 18.1875 33.425 18.1119C33.6073 18.0362 33.8026 17.9973 33.9999 17.9973C34.1972 17.9973 34.3926 18.0362 34.5748 18.1119C34.7571 18.1875 34.9226 18.2983 35.0619 18.438Z" fill="white"/>
<path d="M34.819 7.539L32.056 4.707L34.201 2.613L36.067 4.524L38.737 4.491C39.8928 4.47732 41.0396 4.69487 42.11 5.13086C43.1805 5.56685 44.153 6.21248 44.9702 7.02977C45.7875 7.84707 46.4332 8.81953 46.8692 9.88998C47.3052 10.9604 47.5227 12.1072 47.509 13.263L47.479 15.933L49.387 17.799C50.2134 18.6065 50.87 19.571 51.3184 20.6359C51.7667 21.7008 51.9976 22.8446 51.9976 24C51.9976 25.1554 51.7667 26.2992 51.3184 27.3641C50.87 28.4289 50.2134 29.3935 49.387 30.201L47.476 32.067L47.509 34.737C47.5227 35.8927 47.3052 37.0396 46.8692 38.11C46.4332 39.1805 45.7875 40.1529 44.9702 40.9702C44.153 41.7875 43.1805 42.4331 42.11 42.8691C41.0396 43.3051 39.8928 43.5227 38.737 43.509L36.067 43.479L34.201 45.387C33.3935 46.2134 32.429 46.87 31.3641 47.3183C30.2992 47.7666 29.1554 47.9976 28 47.9976C26.8446 47.9976 25.7009 47.7666 24.636 47.3183C23.5711 46.87 22.6065 46.2134 21.799 45.387L19.933 43.476L17.263 43.509C16.1073 43.5227 14.9605 43.3051 13.89 42.8691C12.8196 42.4331 11.8471 41.7875 11.0298 40.9702C10.2125 40.1529 9.56688 39.1805 9.13089 38.11C8.6949 37.0396 8.47735 35.8927 8.49103 34.737L8.52103 32.067L6.61303 30.201C5.78665 29.3935 5.13001 28.4289 4.6817 27.3641C4.23338 26.2992 4.00244 25.1554 4.00244 24C4.00244 22.8446 4.23338 21.7008 4.6817 20.6359C5.13001 19.571 5.78665 18.6065 6.61303 17.799L8.52403 15.933L8.49103 13.263C8.47735 12.1072 8.6949 10.9604 9.13089 9.88998C9.56688 8.81953 10.2125 7.84707 11.0298 7.02977C11.8471 6.21248 12.8196 5.56685 13.89 5.13086C14.9605 4.69487 16.1073 4.47732 17.263 4.491L19.933 4.521L21.799 2.613C22.6065 1.78662 23.5711 1.12998 24.636 0.681666C25.7009 0.233353 26.8446 0.00241089 28 0.00241089C29.1554 0.00241089 30.2992 0.233353 31.3641 0.681666C32.429 1.12998 33.3935 1.78662 34.201 2.613L32.056 4.707C31.5279 4.16636 30.897 3.73675 30.2005 3.44344C29.504 3.15013 28.7558 2.99904 28 2.99904C27.2442 2.99904 26.4961 3.15013 25.7996 3.44344C25.103 3.73675 24.4721 4.16636 23.944 4.707L21.184 7.539L17.224 7.491C16.4686 7.48255 15.719 7.62517 15.0195 7.91048C14.3199 8.19579 13.6844 8.61803 13.1503 9.1524C12.6162 9.68676 12.1943 10.3225 11.9094 11.0222C11.6244 11.7219 11.4822 12.4715 11.491 13.227L11.539 17.181L8.70703 19.944C8.16639 20.4721 7.73678 21.103 7.44347 21.7995C7.15016 22.4961 6.99907 23.2442 6.99907 24C6.99907 24.7558 7.15016 25.5039 7.44347 26.2005C7.73678 26.897 8.16639 27.5279 8.70703 28.056L11.539 30.816L11.491 34.776C11.4826 35.5315 11.6252 36.281 11.9105 36.9806C12.1958 37.6801 12.6181 38.3156 13.1524 38.8497C13.6868 39.3838 14.3225 39.8057 15.0222 40.0907C15.722 40.3756 16.4716 40.5178 17.227 40.509L21.181 40.461L23.944 43.293C24.4721 43.8336 25.103 44.2632 25.7996 44.5565C26.4961 44.8499 27.2442 45.001 28 45.001C28.7558 45.001 29.504 44.8499 30.2005 44.5565C30.897 44.2632 31.5279 43.8336 32.056 43.293L34.816 40.461L38.776 40.509C39.5315 40.5174 40.281 40.3748 40.9806 40.0895C41.6802 39.8042 42.3157 39.382 42.8498 38.8476C43.3839 38.3132 43.8058 37.6775 44.0907 36.9778C44.3756 36.2781 44.5179 35.5285 44.509 34.773L44.461 30.819L47.293 28.056C47.8337 27.5279 48.2633 26.897 48.5566 26.2005C48.8499 25.5039 49.001 24.7558 49.001 24C49.001 23.2442 48.8499 22.4961 48.5566 21.7995C48.2633 21.103 47.8337 20.4721 47.293 19.944L44.461 17.184L44.509 13.224C44.5175 12.4685 44.3749 11.719 44.0895 11.0194C43.8042 10.3199 43.382 9.68435 42.8476 9.15026C42.3133 8.61618 41.6775 8.19427 40.9778 7.90932C40.2781 7.62438 39.5285 7.48216 38.773 7.491L34.819 7.539Z" fill="white"/>
</g>
<defs>
<filter id="filter0_d_1_303" x="0" y="0" width="56" height="56" filterUnits="userSpaceOnUse" color-interpolation-filters="sRGB">
<feFlood flood-opacity="0" result="BackgroundImageFix"/>
<feColorMatrix in="SourceAlpha" type="matrix" values="0 0 0 0 0 0 0 0 0 0 0 0 0 0 0 0 0 0 127 0" result="hardAlpha"/>
<feOffset dy="4"/>
<feGaussianBlur stdDeviation="2"/>
<feComposite in2="hardAlpha" operator="out"/>
<feColorMatrix type="matrix" values="0 0 0 0 0 0 0 0 0 0 0 0 0 0 0 0 0 0 0.25 0"/>
<feBlend mode="normal" in2="BackgroundImageFix" result="effect1_dropShadow_1_303"/>
<feBlend mode="normal" in="SourceGraphic" in2="effect1_dropShadow_1_303" result="shape"/>
</filter>
</defs>
</svg>
